<?xml version="1.0" encoding="UTF-8" standalone="no"?>
<!DOCTYPE svg PUBLIC "-//W3C//DTD SVG 1.1//EN"
 "http://www.w3.org/Graphics/SVG/1.1/DTD/svg11.dtd">
<!-- Generated by graphviz version 12.1.0 (20240811.2233)
 -->
<!-- Title: src/main.cpp Pages: 1 -->
<svg width="635pt" height="84pt"
 viewBox="0.00 0.00 634.50 84.00" xmlns="http://www.w3.org/2000/svg" xmlns:xlink="http://www.w3.org/1999/xlink">
<g id="graph0" class="graph" transform="scale(1 1) rotate(0) translate(4 80)">
<title>src/main.cpp</title>
<!-- Node1 -->
<g id="Node000001" class="node">
<title>Node1</title>
<g id="a_Node000001"><a xlink:title=" ">
<polygon fill="#999999" stroke="#666666" points="394.5,-76 322.25,-76 322.25,-56 394.5,-56 394.5,-76"/>
<text text-anchor="middle" x="358.38" y="-62.5" font-family="Helvetica,sans-Serif" font-size="10.00">src/main.cpp</text>
</a>
</g>
</g>
<!-- Node2 -->
<g id="Node000002" class="node">
<title>Node2</title>
<g id="a_Node000002"><a xlink:title=" ">
<polygon fill="#e0e0e0" stroke="#999999" points="106.75,-20 0,-20 0,0 106.75,0 106.75,-20"/>
<text text-anchor="middle" x="53.38" y="-6.5" font-family="Helvetica,sans-Serif" font-size="10.00">boost/filesystem.hpp</text>
</a>
</g>
</g>
<!-- Node1&#45;&gt;Node2 -->
<g id="edge1_Node000001_Node000002" class="edge">
<title>Node1&#45;&gt;Node2</title>
<g id="a_edge1_Node000001_Node000002"><a xlink:title=" ">
<path fill="none" stroke="#63b8ff" d="M321.89,-58.54C271.58,-49.63 180.09,-33.43 118.04,-22.45"/>
<polygon fill="#63b8ff" stroke="#63b8ff" points="118.76,-19.02 108.3,-20.73 117.54,-25.92 118.76,-19.02"/>
</a>
</g>
</g>
<!-- Node3 -->
<g id="Node000003" class="node">
<title>Node3</title>
<g id="a_Node000003"><a xlink:title=" ">
<polygon fill="#e0e0e0" stroke="#999999" points="232.12,-20 124.62,-20 124.62,0 232.12,0 232.12,-20"/>
<text text-anchor="middle" x="178.38" y="-6.5" font-family="Helvetica,sans-Serif" font-size="10.00">boost/shared_ptr.hpp</text>
</a>
</g>
</g>
<!-- Node1&#45;&gt;Node3 -->
<g id="edge2_Node000001_Node000003" class="edge">
<title>Node1&#45;&gt;Node3</title>
<g id="a_edge2_Node000001_Node000003"><a xlink:title=" ">
<path fill="none" stroke="#63b8ff" d="M327.02,-55.59C297.65,-46.78 253.51,-33.54 220.96,-23.78"/>
<polygon fill="#63b8ff" stroke="#63b8ff" points="222.01,-20.44 211.42,-20.91 220,-27.14 222.01,-20.44"/>
</a>
</g>
</g>
<!-- Node4 -->
<g id="Node000004" class="node">
<title>Node4</title>
<g id="a_Node000004"><a xlink:title=" ">
<polygon fill="#e0e0e0" stroke="#999999" points="304.12,-20 250.62,-20 250.62,0 304.12,0 304.12,-20"/>
<text text-anchor="middle" x="277.38" y="-6.5" font-family="Helvetica,sans-Serif" font-size="10.00">iostream</text>
</a>
</g>
</g>
<!-- Node1&#45;&gt;Node4 -->
<g id="edge3_Node000001_Node000004" class="edge">
<title>Node1&#45;&gt;Node4</title>
<g id="a_edge3_Node000001_Node000004"><a xlink:title=" ">
<path fill="none" stroke="#63b8ff" d="M344.27,-55.59C332.38,-47.67 315.11,-36.16 301.1,-26.82"/>
<polygon fill="#63b8ff" stroke="#63b8ff" points="303.12,-23.95 292.85,-21.32 299.23,-29.78 303.12,-23.95"/>
</a>
</g>
</g>
<!-- Node5 -->
<g id="Node000005" class="node">
<title>Node5</title>
<g id="a_Node000005"><a xlink:title=" ">
<polygon fill="#e0e0e0" stroke="#999999" points="394.12,-20 322.62,-20 322.62,0 394.12,0 394.12,-20"/>
<text text-anchor="middle" x="358.38" y="-6.5" font-family="Helvetica,sans-Serif" font-size="10.00">static/hello.h</text>
</a>
</g>
</g>
<!-- Node1&#45;&gt;Node5 -->
<g id="edge4_Node000001_Node000005" class="edge">
<title>Node1&#45;&gt;Node5</title>
<g id="a_edge4_Node000001_Node000005"><a xlink:title=" ">
<path fill="none" stroke="#63b8ff" d="M358.38,-55.59C358.38,-49.01 358.38,-39.96 358.38,-31.73"/>
<polygon fill="#63b8ff" stroke="#63b8ff" points="361.88,-31.81 358.38,-21.81 354.88,-31.81 361.88,-31.81"/>
</a>
</g>
</g>
<!-- Node6 -->
<g id="Node000006" class="node">
<title>Node6</title>
<g id="a_Node000006"><a xlink:title=" ">
<polygon fill="#e0e0e0" stroke="#999999" points="468.25,-20 412.5,-20 412.5,0 468.25,0 468.25,-20"/>
<text text-anchor="middle" x="440.38" y="-6.5" font-family="Helvetica,sans-Serif" font-size="10.00">subdir1.h</text>
</a>
</g>
</g>
<!-- Node1&#45;&gt;Node6 -->
<g id="edge5_Node000001_Node000006" class="edge">
<title>Node1&#45;&gt;Node6</title>
<g id="a_edge5_Node000001_Node000006"><a xlink:title=" ">
<path fill="none" stroke="#63b8ff" d="M372.66,-55.59C384.81,-47.59 402.51,-35.93 416.77,-26.54"/>
<polygon fill="#63b8ff" stroke="#63b8ff" points="418.29,-29.73 424.72,-21.31 414.44,-23.89 418.29,-29.73"/>
</a>
</g>
</g>
<!-- Node7 -->
<g id="Node000007" class="node">
<title>Node7</title>
<g id="a_Node000007"><a xlink:title=" ">
<polygon fill="#e0e0e0" stroke="#999999" points="542.25,-20 486.5,-20 486.5,0 542.25,0 542.25,-20"/>
<text text-anchor="middle" x="514.38" y="-6.5" font-family="Helvetica,sans-Serif" font-size="10.00">subdir2.h</text>
</a>
</g>
</g>
<!-- Node1&#45;&gt;Node7 -->
<g id="edge6_Node000001_Node000007" class="edge">
<title>Node1&#45;&gt;Node7</title>
<g id="a_edge6_Node000001_Node000007"><a xlink:title=" ">
<path fill="none" stroke="#63b8ff" d="M385.55,-55.59C410.67,-46.9 448.26,-33.89 476.35,-24.16"/>
<polygon fill="#63b8ff" stroke="#63b8ff" points="477.25,-27.55 485.56,-20.97 474.96,-20.94 477.25,-27.55"/>
</a>
</g>
</g>
<!-- Node8 -->
<g id="Node000008" class="node">
<title>Node8</title>
<g id="a_Node000008"><a xlink:title=" ">
<polygon fill="#e0e0e0" stroke="#999999" points="626.5,-20 560.25,-20 560.25,0 626.5,0 626.5,-20"/>
<text text-anchor="middle" x="593.38" y="-6.5" font-family="Helvetica,sans-Serif" font-size="10.00">subdir3.hpp</text>
</a>
</g>
</g>
<!-- Node1&#45;&gt;Node8 -->
<g id="edge7_Node000001_Node000008" class="edge">
<title>Node1&#45;&gt;Node8</title>
<g id="a_edge7_Node000001_Node000008"><a xlink:title=" ">
<path fill="none" stroke="#63b8ff" d="M394.84,-56.62C436.34,-47.08 504.16,-31.5 548.78,-21.25"/>
<polygon fill="#63b8ff" stroke="#63b8ff" points="549.44,-24.69 558.4,-19.04 547.87,-17.87 549.44,-24.69"/>
</a>
</g>
</g>
</g>
</svg>
