<?xml version="1.0" encoding="UTF-8" standalone="no"?>
<!DOCTYPE svg PUBLIC "-//W3C//DTD SVG 1.1//EN"
 "http://www.w3.org/Graphics/SVG/1.1/DTD/svg11.dtd">
<!-- Generated by graphviz version 12.1.0 (20240811.2233)
 -->
<!-- Title: src/palidrome.cpp Pages: 1 -->
<svg width="206pt" height="84pt"
 viewBox="0.00 0.00 206.12 84.00" xmlns="http://www.w3.org/2000/svg" xmlns:xlink="http://www.w3.org/1999/xlink">
<g id="graph0" class="graph" transform="scale(1 1) rotate(0) translate(4 80)">
<title>src/palidrome.cpp</title>
<!-- Node1 -->
<g id="Node000001" class="node">
<title>Node1</title>
<g id="a_Node000001"><a xlink:title="the source file for palidrome">
<polygon fill="#999999" stroke="#666666" points="158.75,-76 65.5,-76 65.5,-56 158.75,-56 158.75,-76"/>
<text text-anchor="middle" x="112.12" y="-62.5" font-family="Helvetica,sans-Serif" font-size="10.00">src/palidrome.cpp</text>
</a>
</g>
</g>
<!-- Node2 -->
<g id="Node000002" class="node">
<title>Node2</title>
<g id="a_Node000002"><a xlink:title=" ">
<polygon fill="#e0e0e0" stroke="#999999" points="66.25,-20 0,-20 0,0 66.25,0 66.25,-20"/>
<text text-anchor="middle" x="33.12" y="-6.5" font-family="Helvetica,sans-Serif" font-size="10.00">palidrome.h</text>
</a>
</g>
</g>
<!-- Node1&#45;&gt;Node2 -->
<g id="edge1_Node000001_Node000002" class="edge">
<title>Node1&#45;&gt;Node2</title>
<g id="a_edge1_Node000001_Node000002"><a xlink:title=" ">
<path fill="none" stroke="#63b8ff" d="M98.36,-55.59C86.77,-47.67 69.93,-36.16 56.26,-26.82"/>
<polygon fill="#63b8ff" stroke="#63b8ff" points="58.47,-24.09 48.24,-21.33 54.52,-29.87 58.47,-24.09"/>
</a>
</g>
</g>
<!-- Node3 -->
<g id="Node000003" class="node">
<title>Node3</title>
<g id="a_Node000003"><a xlink:title=" ">
<polygon fill="#e0e0e0" stroke="#999999" points="140.38,-20 83.88,-20 83.88,0 140.38,0 140.38,-20"/>
<text text-anchor="middle" x="112.12" y="-6.5" font-family="Helvetica,sans-Serif" font-size="10.00">reverse.h</text>
</a>
</g>
</g>
<!-- Node1&#45;&gt;Node3 -->
<g id="edge2_Node000001_Node000003" class="edge">
<title>Node1&#45;&gt;Node3</title>
<g id="a_edge2_Node000001_Node000003"><a xlink:title=" ">
<path fill="none" stroke="#63b8ff" d="M112.12,-55.59C112.12,-49.01 112.12,-39.96 112.12,-31.73"/>
<polygon fill="#63b8ff" stroke="#63b8ff" points="115.63,-31.81 112.13,-21.81 108.63,-31.81 115.63,-31.81"/>
</a>
</g>
</g>
<!-- Node4 -->
<g id="Node000004" class="node">
<title>Node4</title>
<g id="a_Node000004"><a xlink:title=" ">
<polygon fill="#e0e0e0" stroke="#999999" points="198.12,-20 158.12,-20 158.12,0 198.12,0 198.12,-20"/>
<text text-anchor="middle" x="178.12" y="-6.5" font-family="Helvetica,sans-Serif" font-size="10.00">string</text>
</a>
</g>
</g>
<!-- Node1&#45;&gt;Node4 -->
<g id="edge3_Node000001_Node000004" class="edge">
<title>Node1&#45;&gt;Node4</title>
<g id="a_edge3_Node000001_Node000004"><a xlink:title=" ">
<path fill="none" stroke="#63b8ff" d="M123.62,-55.59C133.09,-47.85 146.73,-36.69 158,-27.47"/>
<polygon fill="#63b8ff" stroke="#63b8ff" points="160.07,-30.3 165.59,-21.26 155.63,-24.88 160.07,-30.3"/>
</a>
</g>
</g>
</g>
</svg>
